{"title":"Doctor Who 2005 S08E10 In The Forest Of The Night 720p HDTV x265","uid":11297500,"size":521042479,"categoryP":"video","categoryS":"hd___tv_shows","magnet":"?xt=urn:btih:4087a34a9e3e4949fa15f1b49a9c29253727b495&amp;dn=Doctor+Who+2005+S08E10+In+The+Forest+Of+The+Night+720p+HDTV+x265&amp;tr=udp%3A%2F%2Ftracker.openbittorrent.com%3A80&amp;tr=udp%3A%2F%2Fopen.demonii.com%3A1337&amp;tr=udp%3A%2F%2Ftracker.coppersurfer.tk%3A6969&amp;tr=udp%3A%2F%2Fexodus.desync.com%3A6969","seeders":5,"leechers":0,"uploader":"atm50","files":-1,"time":1414395976,"description":"One morning in London, and every city and town in the world, the human race wakes up to the most surprising \n\ninvasion yet: the trees have moved back in. Everywhere, in every land, a forest has grown and taken back the \n\nEarth.\n\nSource: Doctor Who 2005 8x10 In The Forest Of The Night 720p HDTV x264-FoV\n\nFormat                         : MPEG-4\nFile size                      : 497 MiB\nDuration                       : 44mn 45s\nOverall bit rate               : 1 552 Kbps\n\nVideo\n\nFormat                         : HEVC [X265]\nBit rate                       : 1 293 Kbps\nMaximum bit rate               : 10.6 Mbps\nWidth                          : 1 280 pixels\nHeight                         : 720 pixels\nDisplay aspect ratio           : 16:9\nFrame rate                     : 25.000 fps\nStream size                    : 414 MiB (83%)\n\nAudio\n\nFormat                         : AC-3\nBit rate                       : 256 Kbps\nChannel(s)                     : 6 channels (5.1)\nSampling rate                  : 48.0 KHz\nBit depth                      : 16 bits\nCompression mode               : Lossy\nStream size                    : 82.0 MiB (16%)\n\nSubtitles: English (External)","torrent":{"xt":"urn:btih:4087a34a9e3e4949fa15f1b49a9c29253727b495","amp;dn":"Doctor+Who+2005+S08E10+In+The+Forest+Of+The+Night+720p+HDTV+x265","amp;tr":["udp%3A%2F%2Ftracker.openbittorrent.com%3A80","udp%3A%2F%2Fopen.demonii.com%3A1337","udp%3A%2F%2Ftracker.coppersurfer.tk%3A6969","udp%3A%2F%2Fexodus.desync.com%3A6969"],"infoHash":"4087a34a9e3e4949fa15f1b49a9c29253727b495","infoHashBuffer":{"type":"Buffer","data":[64,135,163,74,158,62,73,73,250,21,241,180,154,156,41,37,55,39,180,149]},"announce":[],"urlList":[]}}